<svg width="796" height="832" viewBox="0 0 796 832" fill="none" xmlns="http://www.w3.org/2000/svg">
<g filter="url(#filter0_d_3_21)">
<path d="M264.41 599.332C267.631 598.553 269.611 595.31 268.832 592.09C268.053 588.869 264.81 586.889 261.59 587.668L264.41 599.332ZM181.764 630.825C214.22 613.978 232.161 607.131 264.41 599.332L261.59 587.668C228.307 595.717 209.46 602.929 176.236 620.175L181.764 630.825Z" fill="black"/>
</g>
<g filter="url(#filter1_d_3_21)">
<path d="M288.697 653.583C291.78 652.37 293.297 648.887 292.083 645.803C290.87 642.72 287.387 641.203 284.303 642.417L288.697 653.583ZM226.122 707.125C234.912 692.719 243.277 682.274 252.96 673.999C262.631 665.735 273.876 659.415 288.697 653.583L284.303 642.417C268.624 648.585 256.119 655.515 245.165 664.876C234.223 674.226 225.088 685.781 215.878 700.875L226.122 707.125Z" fill="black"/>
</g>
<g filter="url(#filter2_d_3_21)">
<path d="M328.048 709.338C330.72 707.379 331.298 703.624 329.338 700.952C327.379 698.28 323.624 697.702 320.952 699.662L328.048 709.338ZM285.992 763.828C301.708 740.255 306.688 725.003 328.048 709.338L320.952 699.662C297.312 716.997 290.292 735.745 276.008 757.172L285.992 763.828Z" fill="black"/>
</g>
<g filter="url(#filter3_d_3_21)">
<path d="M548.59 599.832C545.369 599.053 543.389 595.81 544.168 592.59C544.947 589.369 548.19 587.389 551.41 588.168L548.59 599.832ZM631.236 631.325C598.78 614.478 580.839 607.631 548.59 599.832L551.41 588.168C584.693 596.217 603.54 603.429 636.764 620.675L631.236 631.325Z" fill="black"/>
<path d="M524.303 654.083C521.22 652.87 519.703 649.387 520.917 646.303C522.13 643.22 525.613 641.703 528.697 642.917L524.303 654.083ZM586.878 707.625C578.088 693.219 569.723 682.774 560.04 674.499C550.369 666.235 539.124 659.915 524.303 654.083L528.697 642.917C544.376 649.085 556.881 656.015 567.835 665.376C578.777 674.726 587.912 686.281 597.122 701.375L586.878 707.625Z" fill="black"/>
<path d="M484.952 709.838C482.28 707.879 481.702 704.124 483.662 701.452C485.621 698.78 489.376 698.202 492.048 700.162L484.952 709.838ZM527.008 764.328C511.292 740.755 506.312 725.503 484.952 709.838L492.048 700.162C515.688 717.497 522.708 736.245 536.992 757.672L527.008 764.328Z" fill="black"/>
</g>
<g filter="url(#filter4_d_3_21)">
<path d="M151.088 458C108.596 462.5 82.588 558 183.58 604C196.077 656.511 204.506 684.06 241.088 723C312.088 771 336.841 788.231 414.088 808.5" stroke="black" stroke-width="22" stroke-linecap="round" stroke-linejoin="round"/>
</g>
<g filter="url(#filter5_d_3_21)">
<path d="M677.5 458C719.992 462.5 746 558 645.008 604C632.511 656.511 624.082 684.06 587.5 723C516.5 771 491.747 788.231 414.5 808.5" stroke="black" stroke-width="22" stroke-linecap="round" stroke-linejoin="round"/>
</g>
<rect x="117.5" y="306" width="594" height="148" rx="18" stroke="black" stroke-width="8"/>
<g filter="url(#filter6_i_3_21)">
<rect x="238" y="317.5" width="353" height="127" rx="29.5" stroke="black" stroke-width="9"/>
</g>
<g filter="url(#filter7_i_3_21)">
<path d="M72.63 374.275L207.168 308.407C207.715 308.139 208.317 308 208.927 308H590.07C590.682 308 591.285 308.14 591.834 308.41L725.497 374.077C728.742 375.671 732.269 372.485 731.011 369.096L701.311 289.035C700.575 287.05 701.513 284.835 703.451 283.982L787.824 246.876C790.904 245.521 791.037 241.2 788.045 239.659L684.314 186.208C682.447 185.246 681.642 183.004 682.47 181.074L724.81 82.432C726.116 79.3883 723.369 76.1664 720.157 76.9754L598.78 107.548C596.677 108.078 594.534 106.835 593.95 104.746L567.232 9.19491C566.434 6.34047 562.917 5.3152 560.71 7.29354L471.888 86.9114C470.279 88.3538 467.815 88.2574 466.323 86.6936L389.872 6.53559C388.128 4.70741 385.148 4.93348 383.7 7.00372L327.937 86.7312C326.818 88.33 324.71 88.8888 322.946 88.0536L189.999 25.0787C187.165 23.7361 183.958 26.0294 184.313 29.1457L194.932 122.502C195.222 125.059 193.059 127.221 190.503 126.928L67.408 112.847C64.2375 112.485 61.9397 115.799 63.3909 118.641L84 159L111.696 202.39C112.942 204.343 112.275 206.942 110.242 208.053L60 235.5L10.0954 261.7C6.74775 263.457 7.48205 268.449 11.194 269.168L91.0025 284.629C93.3817 285.09 94.8078 287.544 94.0303 289.839L67.0826 369.399C65.9415 372.768 69.4355 375.839 72.63 374.275Z" fill="white"/>
</g>
<path d="M207.168 308.407L205.189 304.366L205.189 304.366L207.168 308.407ZM72.63 374.275L74.6087 378.317L74.6087 378.317L72.63 374.275ZM67.0826 369.399L71.3447 370.843L71.3447 370.843L67.0826 369.399ZM94.0303 289.839L98.2925 291.283L98.2925 291.283L94.0303 289.839ZM91.0025 284.629L91.8583 280.211L91.8583 280.211L91.0025 284.629ZM11.194 269.168L10.3382 273.586L10.3382 273.586L11.194 269.168ZM67.408 112.847L66.8965 117.318L66.8965 117.318L67.408 112.847ZM190.503 126.928L189.991 131.399L189.991 131.399L190.503 126.928ZM194.932 122.502L199.403 121.994L199.403 121.994L194.932 122.502ZM184.313 29.1457L179.842 29.6543L179.842 29.6543L184.313 29.1457ZM189.999 25.0787L188.073 29.1455L188.073 29.1455L189.999 25.0787ZM322.946 88.0536L324.873 83.9868L324.873 83.9867L322.946 88.0536ZM327.937 86.7312L324.249 84.152L324.249 84.152L327.937 86.7312ZM383.7 7.00372L380.012 4.42457L380.012 4.42457L383.7 7.00372ZM389.872 6.53559L393.128 3.42979L393.128 3.42977L389.872 6.53559ZM466.323 86.6936L463.067 89.7994L463.067 89.7994L466.323 86.6936ZM471.888 86.9114L468.884 83.5606L468.884 83.5606L471.888 86.9114ZM560.71 7.29354L557.706 3.94264L557.706 3.94268L560.71 7.29354ZM567.232 9.19491L562.898 10.4067L562.898 10.4067L567.232 9.19491ZM593.95 104.746L589.617 105.958L589.617 105.958L593.95 104.746ZM598.78 107.548L599.879 111.912L599.879 111.912L598.78 107.548ZM720.157 76.9754L721.256 81.3391L721.256 81.3391L720.157 76.9754ZM724.81 82.432L720.675 80.657L720.675 80.6571L724.81 82.432ZM682.47 181.074L678.335 179.299L678.335 179.299L682.47 181.074ZM684.314 186.208L682.253 190.208L682.253 190.208L684.314 186.208ZM788.045 239.659L785.984 243.659L785.984 243.659L788.045 239.659ZM787.824 246.876L789.635 250.995L789.635 250.995L787.824 246.876ZM703.451 283.982L701.64 279.863L701.64 279.863L703.451 283.982ZM701.311 289.035L705.53 287.47L705.53 287.47L701.311 289.035ZM731.011 369.096L726.792 370.661L726.792 370.661L731.011 369.096ZM725.497 374.077L727.482 370.038L727.482 370.038L725.497 374.077ZM591.834 308.41L593.819 304.371L593.818 304.371L591.834 308.41ZM111.696 202.39L115.489 199.969L115.489 199.969L111.696 202.39ZM84 159L79.9923 161.046L80.0906 161.239L80.2069 161.421L84 159ZM63.3909 118.641L67.3987 116.594L67.3987 116.594L63.3909 118.641ZM10.0954 261.7L12.1872 265.684L12.1872 265.684L10.0954 261.7ZM60 235.5L62.0918 239.484C62.1137 239.473 62.1356 239.461 62.1574 239.449L60 235.5ZM110.242 208.053L112.399 212.002L112.399 212.002L110.242 208.053ZM205.189 304.366L70.6513 370.233L74.6087 378.317L209.146 312.449L205.189 304.366ZM71.3447 370.843L98.2925 291.283L89.7682 288.395L62.8204 367.955L71.3447 370.843ZM91.8583 280.211L12.0499 264.751L10.3382 273.586L90.1467 289.047L91.8583 280.211ZM66.8965 117.318L189.991 131.399L191.014 122.457L67.9194 108.377L66.8965 117.318ZM199.403 121.994L188.784 28.6372L179.842 29.6543L190.46 123.011L199.403 121.994ZM188.073 29.1455L321.02 92.1204L324.873 83.9867L191.926 21.0119L188.073 29.1455ZM331.624 89.3103L387.387 9.58287L380.012 4.42457L324.249 84.152L331.624 89.3103ZM386.616 9.64138L463.067 89.7994L469.58 83.5878L393.128 3.42979L386.616 9.64138ZM474.891 90.2623L563.714 10.6444L557.706 3.94268L468.884 83.5606L474.891 90.2623ZM562.898 10.4067L589.617 105.958L598.284 103.534L571.566 7.9831L562.898 10.4067ZM599.879 111.912L721.256 81.3391L719.058 72.6117L597.68 103.184L599.879 111.912ZM720.675 80.6571L678.335 179.299L686.606 182.849L728.945 84.2069L720.675 80.6571ZM682.253 190.208L785.984 243.659L790.107 235.659L686.375 182.207L682.253 190.208ZM786.012 242.757L701.64 279.863L705.263 288.101L789.635 250.995L786.012 242.757ZM697.092 290.6L726.792 370.661L735.23 367.531L705.53 287.47L697.092 290.6ZM727.482 370.038L593.819 304.371L589.85 312.449L723.513 378.116L727.482 370.038ZM590.07 303.5H208.927V312.5H590.07V303.5ZM115.489 199.969L87.7931 156.579L80.2069 161.421L107.903 204.812L115.489 199.969ZM88.0077 156.954L67.3987 116.594L59.3832 120.687L79.9923 161.046L88.0077 156.954ZM12.1872 265.684L62.0918 239.484L57.9082 231.516L8.00369 257.716L12.1872 265.684ZM62.1574 239.449L112.399 212.002L108.085 204.104L57.8426 231.551L62.1574 239.449ZM593.818 304.371C592.652 303.798 591.37 303.5 590.07 303.5V312.5C589.994 312.5 589.919 312.482 589.85 312.449L593.818 304.371ZM726.792 370.661C726.776 370.618 726.755 370.491 726.795 370.345C726.828 370.224 726.884 370.154 726.926 370.116C726.968 370.078 727.043 370.029 727.167 370.009C727.316 369.984 727.44 370.018 727.482 370.038L723.513 378.116C730.408 381.503 737.902 374.733 735.23 367.531L726.792 370.661ZM701.64 279.863C697.521 281.674 695.527 286.382 697.092 290.6L705.53 287.47C705.622 287.718 705.505 287.995 705.263 288.101L701.64 279.863ZM785.984 243.659C785.935 243.634 785.845 243.561 785.78 243.445C785.724 243.346 785.712 243.26 785.713 243.199C785.715 243.138 785.733 243.053 785.794 242.958C785.867 242.846 785.962 242.779 786.012 242.757L789.635 250.995C796.181 248.117 796.463 238.934 790.107 235.659L785.984 243.659ZM678.335 179.299C676.575 183.4 678.286 188.164 682.253 190.208L686.375 182.207C686.609 182.328 686.709 182.608 686.606 182.849L678.335 179.299ZM721.256 81.3391C721.202 81.3529 721.088 81.358 720.965 81.316C720.86 81.2801 720.794 81.2258 720.754 81.1787C720.714 81.1316 720.671 81.0573 720.652 80.9481C720.63 80.8205 720.653 80.7087 720.675 80.657L728.945 84.2069C731.721 77.7391 725.883 70.8926 719.058 72.6117L721.256 81.3391ZM589.617 105.958C590.858 110.396 595.41 113.037 599.879 111.912L597.68 103.184C597.943 103.118 598.211 103.273 598.284 103.534L589.617 105.958ZM563.714 10.6444C563.438 10.8916 562.998 10.7636 562.898 10.4067L571.566 7.9831C569.87 1.91737 562.396 -0.26123 557.706 3.94264L563.714 10.6444ZM463.067 89.7994C466.236 93.1224 471.472 93.3274 474.891 90.2623L468.884 83.5606C469.085 83.3802 469.393 83.3924 469.58 83.5878L463.067 89.7994ZM387.387 9.58287C387.206 9.84166 386.834 9.86989 386.616 9.6414L393.128 3.42977C389.423 -0.455058 383.089 0.0253102 380.012 4.42457L387.387 9.58287ZM321.02 92.1204C324.767 93.8953 329.248 92.7078 331.624 89.3103L324.249 84.152C324.389 83.9522 324.652 83.8823 324.873 83.9868L321.02 92.1204ZM188.784 28.6372C188.791 28.697 188.781 28.8029 188.731 28.9098C188.687 29.0033 188.63 29.0633 188.578 29.1004C188.526 29.1374 188.451 29.1725 188.348 29.1835C188.231 29.1962 188.128 29.1713 188.073 29.1455L191.926 21.0119C185.903 18.1587 179.088 23.0322 179.842 29.6543L188.784 28.6372ZM189.991 131.399C195.423 132.021 200.021 127.426 199.403 121.994L190.46 123.011C190.424 122.691 190.694 122.421 191.014 122.457L189.991 131.399ZM67.9194 108.377C61.1821 107.606 56.2993 114.648 59.3832 120.687L67.3987 116.594C67.4256 116.647 67.4543 116.752 67.4438 116.873C67.4347 116.978 67.4003 117.054 67.3643 117.106C67.3282 117.158 67.2685 117.217 67.1733 117.263C67.0636 117.315 66.9553 117.325 66.8965 117.318L67.9194 108.377ZM107.903 204.812C107.747 204.568 107.831 204.243 108.085 204.104L112.399 212.002C116.719 209.642 118.137 204.118 115.489 199.969L107.903 204.812ZM12.0499 264.751C12.0498 264.751 12.0529 264.751 12.0589 264.753C12.0648 264.754 12.073 264.757 12.0833 264.761C12.1044 264.769 12.1308 264.78 12.1605 264.797C12.222 264.832 12.2791 264.878 12.326 264.93C12.4155 265.029 12.4419 265.117 12.4495 265.169C12.457 265.22 12.4571 265.312 12.3999 265.433C12.37 265.496 12.3287 265.557 12.2798 265.608C12.2562 265.633 12.2342 265.651 12.2163 265.665C12.2075 265.671 12.2003 265.676 12.1951 265.679C12.19 265.683 12.1872 265.684 12.1872 265.684L8.00369 257.716C0.889835 261.45 2.45025 272.058 10.3382 273.586L12.0499 264.751ZM98.2925 291.283C99.9446 286.405 96.9142 281.19 91.8583 280.211L90.1467 289.047C89.8493 288.989 89.671 288.682 89.7682 288.395L98.2925 291.283ZM70.6513 370.233C70.6947 370.212 70.816 370.179 70.9613 370.202C71.0821 370.222 71.158 370.269 71.2012 370.307C71.2445 370.345 71.301 370.414 71.3356 370.531C71.3771 370.672 71.3602 370.797 71.3447 370.843L62.8204 367.955C60.3957 375.114 67.8204 381.64 74.6087 378.317L70.6513 370.233ZM209.146 312.449C209.078 312.483 209.003 312.5 208.927 312.5V303.5C207.631 303.5 206.353 303.796 205.189 304.366L209.146 312.449Z" fill="black"/>
<g filter="url(#filter8_d_3_21)">
<circle cx="301" cy="510.5" r="27.5" fill="black"/>
</g>
<g filter="url(#filter9_d_3_21)">
<circle cx="516" cy="510.5" r="27.5" fill="black"/>
</g>
<path d="M233.5 458H601.5V458C601.5 464.627 596.127 470 589.5 470H245.5C238.873 470 233.5 464.627 233.5 458V458Z" fill="#E1E424" fill-opacity="0.8"/>
<path d="M263.5 322H563.5V322C563.5 328.627 558.127 334 551.5 334H275.5C268.873 334 263.5 328.627 263.5 322V322Z" fill="#E1E424" fill-opacity="0.8"/>
<defs>
<filter id="filter0_d_3_21" x="176.236" y="587.499" width="101.766" height="55.3267" filterUnits="userSpaceOnUse" color-interpolation-filters="sRGB">
<feFlood flood-opacity="0" result="BackgroundImageFix"/>
<feColorMatrix in="SourceAlpha" type="matrix" values="0 0 0 0 0 0 0 0 0 0 0 0 0 0 0 0 0 0 127 0" result="hardAlpha"/>
<feOffset dx="5" dy="8"/>
<feGaussianBlur stdDeviation="2"/>
<feComposite in2="hardAlpha" operator="out"/>
<feColorMatrix type="matrix" values="0 0 0 0 0.880753 0 0 0 0 0.895833 0 0 0 0 0.14184 0 0 0 0.8 0"/>
<feBlend mode="normal" in2="BackgroundImageFix" result="effect1_dropShadow_3_21"/>
<feBlend mode="normal" in="SourceGraphic" in2="effect1_dropShadow_3_21" result="shape"/>
</filter>
<filter id="filter1_d_3_21" x="215.878" y="641.998" width="85.6234" height="77.1268" filterUnits="userSpaceOnUse" color-interpolation-filters="sRGB">
<feFlood flood-opacity="0" result="BackgroundImageFix"/>
<feColorMatrix in="SourceAlpha" type="matrix" values="0 0 0 0 0 0 0 0 0 0 0 0 0 0 0 0 0 0 127 0" result="hardAlpha"/>
<feOffset dx="5" dy="8"/>
<feGaussianBlur stdDeviation="2"/>
<feComposite in2="hardAlpha" operator="out"/>
<feColorMatrix type="matrix" values="0 0 0 0 0.880753 0 0 0 0 0.895833 0 0 0 0 0.14184 0 0 0 0.8 0"/>
<feBlend mode="normal" in2="BackgroundImageFix" result="effect1_dropShadow_3_21"/>
<feBlend mode="normal" in="SourceGraphic" in2="effect1_dropShadow_3_21" result="shape"/>
</filter>
<filter id="filter2_d_3_21" x="276.008" y="698.5" width="63.4927" height="77.3286" filterUnits="userSpaceOnUse" color-interpolation-filters="sRGB">
<feFlood flood-opacity="0" result="BackgroundImageFix"/>
<feColorMatrix in="SourceAlpha" type="matrix" values="0 0 0 0 0 0 0 0 0 0 0 0 0 0 0 0 0 0 127 0" result="hardAlpha"/>
<feOffset dx="5" dy="8"/>
<feGaussianBlur stdDeviation="2"/>
<feComposite in2="hardAlpha" operator="out"/>
<feColorMatrix type="matrix" values="0 0 0 0 0.880753 0 0 0 0 0.895833 0 0 0 0 0.14184 0 0 0 0.8 0"/>
<feBlend mode="normal" in2="BackgroundImageFix" result="effect1_dropShadow_3_21"/>
<feBlend mode="normal" in="SourceGraphic" in2="effect1_dropShadow_3_21" result="shape"/>
</filter>
<filter id="filter3_d_3_21" x="473.5" y="587.999" width="163.265" height="188.33" filterUnits="userSpaceOnUse" color-interpolation-filters="sRGB">
<feFlood flood-opacity="0" result="BackgroundImageFix"/>
<feColorMatrix in="SourceAlpha" type="matrix" values="0 0 0 0 0 0 0 0 0 0 0 0 0 0 0 0 0 0 127 0" result="hardAlpha"/>
<feOffset dx="-5" dy="8"/>
<feGaussianBlur stdDeviation="2"/>
<feComposite in2="hardAlpha" operator="out"/>
<feColorMatrix type="matrix" values="0 0 0 0 0.880753 0 0 0 0 0.895833 0 0 0 0 0.14184 0 0 0 0.8 0"/>
<feBlend mode="normal" in2="BackgroundImageFix" result="effect1_dropShadow_3_21"/>
<feBlend mode="normal" in="SourceGraphic" in2="effect1_dropShadow_3_21" result="shape"/>
</filter>
<filter id="filter4_d_3_21" x="87.5" y="446.999" width="337.591" height="384.504" filterUnits="userSpaceOnUse" color-interpolation-filters="sRGB">
<feFlood flood-opacity="0" result="BackgroundImageFix"/>
<feColorMatrix in="SourceAlpha" type="matrix" values="0 0 0 0 0 0 0 0 0 0 0 0 0 0 0 0 0 0 127 0" result="hardAlpha"/>
<feOffset dx="-11" dy="8"/>
<feGaussianBlur stdDeviation="2"/>
<feComposite in2="hardAlpha" operator="out"/>
<feColorMatrix type="matrix" values="0 0 0 0 0.880753 0 0 0 0 0.895833 0 0 0 0 0.14184 0 0 0 0.8 0"/>
<feBlend mode="normal" in2="BackgroundImageFix" result="effect1_dropShadow_3_21"/>
<feBlend mode="normal" in="SourceGraphic" in2="effect1_dropShadow_3_21" result="shape"/>
</filter>
<filter id="filter5_d_3_21" x="403.497" y="446.999" width="337.591" height="384.504" filterUnits="userSpaceOnUse" color-interpolation-filters="sRGB">
<feFlood flood-opacity="0" result="BackgroundImageFix"/>
<feColorMatrix in="SourceAlpha" type="matrix" values="0 0 0 0 0 0 0 0 0 0 0 0 0 0 0 0 0 0 127 0" result="hardAlpha"/>
<feOffset dx="11" dy="8"/>
<feGaussianBlur stdDeviation="2"/>
<feComposite in2="hardAlpha" operator="out"/>
<feColorMatrix type="matrix" values="0 0 0 0 0.880753 0 0 0 0 0.895833 0 0 0 0 0.14184 0 0 0 0.8 0"/>
<feBlend mode="normal" in2="BackgroundImageFix" result="effect1_dropShadow_3_21"/>
<feBlend mode="normal" in="SourceGraphic" in2="effect1_dropShadow_3_21" result="shape"/>
</filter>
<filter id="filter6_i_3_21" x="233.5" y="313" width="362" height="136" filterUnits="userSpaceOnUse" color-interpolation-filters="sRGB">
<feFlood flood-opacity="0" result="BackgroundImageFix"/>
<feBlend mode="normal" in="SourceGraphic" in2="BackgroundImageFix" result="shape"/>
<feColorMatrix in="SourceAlpha" type="matrix" values="0 0 0 0 0 0 0 0 0 0 0 0 0 0 0 0 0 0 127 0" result="hardAlpha"/>
<feOffset/>
<feGaussianBlur stdDeviation="2"/>
<feComposite in2="hardAlpha" operator="arithmetic" k2="-1" k3="1"/>
<feColorMatrix type="matrix" values="0 0 0 0 0.880753 0 0 0 0 0.895833 0 0 0 0 0.14184 0 0 0 0.8 0"/>
<feBlend mode="normal" in2="shape" result="effect1_innerShadow_3_21"/>
</filter>
<filter id="filter7_i_3_21" x="3.45111" y="0.796051" width="791.262" height="382.412" filterUnits="userSpaceOnUse" color-interpolation-filters="sRGB">
<feFlood flood-opacity="0" result="BackgroundImageFix"/>
<feBlend mode="normal" in="SourceGraphic" in2="BackgroundImageFix" result="shape"/>
<feColorMatrix in="SourceAlpha" type="matrix" values="0 0 0 0 0 0 0 0 0 0 0 0 0 0 0 0 0 0 127 0" result="hardAlpha"/>
<feOffset dy="18"/>
<feGaussianBlur stdDeviation="2"/>
<feComposite in2="hardAlpha" operator="arithmetic" k2="-1" k3="1"/>
<feColorMatrix type="matrix" values="0 0 0 0 0.880753 0 0 0 0 0.895833 0 0 0 0 0.14184 0 0 0 0.8 0"/>
<feBlend mode="normal" in2="shape" result="effect1_innerShadow_3_21"/>
</filter>
<filter id="filter8_d_3_21" x="269.5" y="483" width="63" height="66" filterUnits="userSpaceOnUse" color-interpolation-filters="sRGB">
<feFlood flood-opacity="0" result="BackgroundImageFix"/>
<feColorMatrix in="SourceAlpha" type="matrix" values="0 0 0 0 0 0 0 0 0 0 0 0 0 0 0 0 0 0 127 0" result="hardAlpha"/>
<feOffset dy="7"/>
<feGaussianBlur stdDeviation="2"/>
<feComposite in2="hardAlpha" operator="out"/>
<feColorMatrix type="matrix" values="0 0 0 0 0.880753 0 0 0 0 0.895833 0 0 0 0 0.14184 0 0 0 0.8 0"/>
<feBlend mode="normal" in2="BackgroundImageFix" result="effect1_dropShadow_3_21"/>
<feBlend mode="normal" in="SourceGraphic" in2="effect1_dropShadow_3_21" result="shape"/>
</filter>
<filter id="filter9_d_3_21" x="484.5" y="483" width="63" height="66" filterUnits="userSpaceOnUse" color-interpolation-filters="sRGB">
<feFlood flood-opacity="0" result="BackgroundImageFix"/>
<feColorMatrix in="SourceAlpha" type="matrix" values="0 0 0 0 0 0 0 0 0 0 0 0 0 0 0 0 0 0 127 0" result="hardAlpha"/>
<feOffset dy="7"/>
<feGaussianBlur stdDeviation="2"/>
<feComposite in2="hardAlpha" operator="out"/>
<feColorMatrix type="matrix" values="0 0 0 0 0.880753 0 0 0 0 0.895833 0 0 0 0 0.14184 0 0 0 0.8 0"/>
<feBlend mode="normal" in2="BackgroundImageFix" result="effect1_dropShadow_3_21"/>
<feBlend mode="normal" in="SourceGraphic" in2="effect1_dropShadow_3_21" result="shape"/>
</filter>
</defs>
</svg>
